<?xml version="1.0" encoding="utf-8"?>
<!-- Generator: Adobe Illustrator 25.2.1, SVG Export Plug-In . SVG Version: 6.00 Build 0)  -->
<svg version="1.1" id="圖層_1" xmlns="http://www.w3.org/2000/svg" xmlns:xlink="http://www.w3.org/1999/xlink" x="0px" y="0px"
	 viewBox="0 0 177.2 27.7" style="enable-background:new 0 0 177.2 27.7;" xml:space="preserve">
<style type="text/css">
	.st0{fill:#252525;}
</style>
<g>
	<g>
		<path class="st0" d="M11.9,26.4V15.7H3.7v10.7H1.1V2.9h2.5v10.5h8.2V2.9h2.5v23.6H11.9z"/>
		<path class="st0" d="M22.9,26.4v-9.1L16.9,2.9h2.7l4.6,11.4h0.2L29,2.9h2.6l-6.1,14.5v9.1H22.9z"/>
		<path class="st0" d="M44.8,26.4V15.7h-8.2v10.7H34V2.9h2.5v10.5h8.2V2.9h2.5v23.6H44.8z"/>
		<path class="st0" d="M52.3,8.2c0.2-0.3,0.3-0.9,0.3-1.8V5.8h-1.1v-3h2.7v2.7c0,1.2-0.1,2.1-0.2,2.6c-0.2,0.6-0.5,1-0.9,1.2
			s-1.2,0.4-2.2,0.4V8.6C51.6,8.6,52,8.5,52.3,8.2z"/>
		<path class="st0" d="M58.8,26.6c-0.9-0.1-1.6-0.2-2.2-0.3v-2c1.5,0.3,3,0.4,4.5,0.4c0.9,0,1.5-0.1,2-0.3c0.4-0.2,0.7-0.5,0.9-1
			c0.1-0.4,0.2-1,0.2-1.7c0-0.8,0-1.4-0.1-1.8c-0.1-0.4-0.2-0.6-0.5-0.7c-0.2-0.1-0.6-0.2-1.1-0.3L59,18.4c-1.1-0.2-1.8-0.6-2.2-1.3
			c-0.4-0.7-0.6-1.8-0.6-3.3c0-1.4,0.2-2.4,0.7-3.2c0.4-0.7,1-1.3,1.8-1.5s1.8-0.4,3-0.4c0.7,0,1.5,0,2.3,0.1
			c0.8,0.1,1.4,0.2,1.9,0.3v2c-0.5-0.1-1.2-0.2-1.9-0.3c-0.8-0.1-1.5-0.1-2.2-0.1c-1.1,0-1.9,0.2-2.3,0.6c-0.5,0.4-0.7,1.2-0.7,2.3
			c0,0.8,0,1.3,0.1,1.7c0.1,0.4,0.2,0.6,0.5,0.7c0.2,0.1,0.6,0.2,1.1,0.3l3.3,0.4c0.7,0.1,1.3,0.3,1.7,0.6c0.4,0.3,0.7,0.8,0.9,1.4
			c0.2,0.7,0.3,1.6,0.3,2.8c0,1.9-0.4,3.3-1.2,4c-0.8,0.7-2.2,1.1-4,1.1C60.5,26.7,59.7,26.7,58.8,26.6z"/>
		<path class="st0" d="M76.8,2.9h7c1.6,0,2.8,0.3,3.6,0.9c0.8,0.6,1.3,1.5,1.6,2.5c0.2,1,0.4,2.3,0.4,4c0,1.6-0.1,2.9-0.4,3.9
			c-0.2,1-0.8,1.8-1.6,2.5c-0.8,0.6-2,1-3.6,1h-4.4v8.8h-2.6V2.9z M83.1,15.4c1.1,0,1.9-0.2,2.4-0.5c0.5-0.4,0.8-0.9,1-1.6
			c0.1-0.7,0.2-1.7,0.2-3c0-1.3-0.1-2.3-0.2-3c-0.1-0.7-0.5-1.2-1-1.6c-0.5-0.4-1.3-0.5-2.4-0.5h-3.8v10.3H83.1z"/>
		<path class="st0" d="M93.9,26c-0.8-0.5-1.3-1.3-1.6-2.5c-0.2-1.2-0.4-3.1-0.4-5.8s0.1-4.6,0.4-5.8c0.2-1.2,0.8-2,1.6-2.5
			c0.8-0.5,2.1-0.7,4-0.7s3.2,0.2,4,0.7s1.3,1.3,1.6,2.5c0.2,1.2,0.3,3.1,0.3,5.8s-0.1,4.6-0.3,5.8c-0.2,1.2-0.7,2-1.6,2.5
			c-0.8,0.5-2.1,0.7-4,0.7S94.7,26.5,93.9,26z M100.3,24.1c0.5-0.3,0.8-0.9,0.9-1.8c0.1-0.9,0.2-2.4,0.2-4.7c0-2.2-0.1-3.8-0.2-4.7
			c-0.1-0.9-0.4-1.5-0.9-1.8c-0.5-0.3-1.3-0.5-2.4-0.5c-1.2,0-2,0.2-2.4,0.5c-0.5,0.3-0.7,0.9-0.9,1.8c-0.1,0.9-0.2,2.4-0.2,4.6
			c0,2.2,0.1,3.8,0.2,4.6c0.1,0.9,0.4,1.5,0.9,1.8c0.5,0.3,1.3,0.5,2.4,0.5C99,24.6,99.8,24.5,100.3,24.1z"/>
		<path class="st0" d="M107.5,9h2.1l0.1,3.3h0.2c0.3-1.3,0.8-2.3,1.6-2.8c0.7-0.5,1.7-0.8,3-0.8v2.5c-1.2,0-2.1,0.3-2.8,0.8
			c-0.7,0.5-1.1,1.3-1.4,2.2c-0.3,1-0.4,2.3-0.4,4v8.3h-2.4V9z"/>
		<path class="st0" d="M118.5,26.4V11.1H116V9h2.5V3.9h2.4V9h3v2.1h-3v15.4H118.5z"/>
		<path class="st0" d="M127.9,11.1h-2.5V9h2.5V6c0-1.5,0.2-2.7,0.5-3.4c0.4-0.7,0.9-1.2,1.7-1.4c0.8-0.2,1.9-0.3,3.5-0.3v1.9
			c-0.9,0-1.6,0.1-2.1,0.2c-0.4,0.1-0.8,0.4-0.9,0.8s-0.3,1-0.3,1.7V9h3.3v2.1h-3.3v15.4h-2.4V11.1z"/>
		<path class="st0" d="M137.7,26c-0.8-0.5-1.3-1.3-1.6-2.5c-0.2-1.2-0.4-3.1-0.4-5.8s0.1-4.6,0.4-5.8c0.2-1.2,0.8-2,1.6-2.5
			c0.8-0.5,2.1-0.7,4-0.7s3.2,0.2,4,0.7s1.3,1.3,1.6,2.5c0.2,1.2,0.3,3.1,0.3,5.8s-0.1,4.6-0.3,5.8c-0.2,1.2-0.7,2-1.6,2.5
			c-0.8,0.5-2.1,0.7-4,0.7S138.5,26.5,137.7,26z M144.1,24.1c0.5-0.3,0.8-0.9,0.9-1.8c0.1-0.9,0.2-2.4,0.2-4.7
			c0-2.2-0.1-3.8-0.2-4.7c-0.1-0.9-0.4-1.5-0.9-1.8c-0.5-0.3-1.3-0.5-2.4-0.5c-1.2,0-2,0.2-2.4,0.5c-0.5,0.3-0.7,0.9-0.9,1.8
			c-0.1,0.9-0.2,2.4-0.2,4.6c0,2.2,0.1,3.8,0.2,4.6c0.1,0.9,0.4,1.5,0.9,1.8c0.5,0.3,1.3,0.5,2.4,0.5
			C142.8,24.6,143.6,24.5,144.1,24.1z"/>
		<path class="st0" d="M151.3,26.4V1h2.4v25.5H151.3z"/>
		<path class="st0" d="M158,3.8V1h2.6v2.8H158z M158,26.4V9h2.4v17.5H158z"/>
		<path class="st0" d="M166.1,26c-0.8-0.5-1.3-1.3-1.6-2.5c-0.2-1.2-0.4-3.1-0.4-5.8s0.1-4.6,0.4-5.8c0.2-1.2,0.8-2,1.6-2.5
			c0.8-0.5,2.1-0.7,4-0.7s3.2,0.2,4,0.7s1.3,1.3,1.6,2.5c0.2,1.2,0.3,3.1,0.3,5.8s-0.1,4.6-0.3,5.8c-0.2,1.2-0.7,2-1.6,2.5
			c-0.8,0.5-2.1,0.7-4,0.7S167,26.5,166.1,26z M172.6,24.1c0.5-0.3,0.8-0.9,0.9-1.8c0.1-0.9,0.2-2.4,0.2-4.7c0-2.2-0.1-3.8-0.2-4.7
			c-0.1-0.9-0.4-1.5-0.9-1.8c-0.5-0.3-1.3-0.5-2.4-0.5c-1.2,0-2,0.2-2.4,0.5c-0.5,0.3-0.7,0.9-0.9,1.8c-0.1,0.9-0.2,2.4-0.2,4.6
			c0,2.2,0.1,3.8,0.2,4.6c0.1,0.9,0.4,1.5,0.9,1.8c0.5,0.3,1.3,0.5,2.4,0.5C171.3,24.6,172.1,24.5,172.6,24.1z"/>
	</g>
</g>
</svg>
